<?xml version="1.0" encoding="utf-8"?><svg xml:space="preserve" viewBox="0 0 100 100" y="0" x="0" xmlns="http://www.w3.org/2000/svg" id="圖層_1" version="1.1" width="100px" height="100px" xmlns:xlink="http://www.w3.org/1999/xlink" style="width:100%;height:100%;background-size:initial;background-repeat-y:initial;background-repeat-x:initial;background-position-y:initial;background-position-x:initial;background-origin:initial;background-color:initial;background-clip:initial;background-attachment:initial;animation-play-state:paused" ><g class="ldl-scale" style="transform-origin:50% 50%;transform:rotate(0deg) scale(1, 1);animation-play-state:paused" ><path fill="#d1d1d1" d="M27.424 89.404c-5.038 0-9.137-4.099-9.137-9.138V56.773c0-1.153.191-2.373.538-3.589a8.317 8.317 0 0 1-2.954.536 8.31 8.31 0 0 1-6.651-3.285c-2.804-3.668-2.102-8.931 1.563-11.735l34.133-26.104a8.42 8.42 0 0 1 5.085-1.722c1.828 0 3.634.612 5.086 1.723l8.333 6.373v-1.104c0-4.008 3.261-7.27 7.27-7.27h3.635c4.008 0 7.27 3.261 7.27 7.27v14.027c0 .305-.038.604-.111.891L89.22 38.7c3.666 2.804 4.368 8.067 1.564 11.733a8.316 8.316 0 0 1-6.653 3.287 8.313 8.313 0 0 1-2.954-.536c.347 1.216.538 2.436.538 3.589v23.494c0 5.038-4.099 9.138-9.138 9.138" style="fill:rgb(209, 209, 209);animation-play-state:paused" ></path>
<path fill="#454545" d="M73.708 47.928L54.371 33.139c-2.404-1.838-6.338-1.838-8.741 0L26.292 47.928c-2.404 1.839-4.371 5.819-4.371 8.846v23.494c0 3.026 2.476 5.503 5.502 5.503h29.072V66.776a2.977 2.977 0 0 1 2.968-2.968h6.699a2.977 2.977 0 0 1 2.968 2.968V85.77h3.445c3.026 0 5.503-2.476 5.503-5.503V56.774c0-3.027-1.966-7.007-4.37-8.846zM47.564 65.901a2.467 2.467 0 0 1-2.46 2.46H33.572a2.467 2.467 0 0 1-2.46-2.46v-9.438a2.467 2.467 0 0 1 2.46-2.46h11.532a2.467 2.467 0 0 1 2.46 2.46v9.438zm19.489-42.348v-5.687a3.646 3.646 0 0 1 3.635-3.635h3.635a3.646 3.646 0 0 1 3.635 3.635v14.027l-10.905-8.34zm20.842 24.673a4.706 4.706 0 0 1-3.765 1.859 4.697 4.697 0 0 1-2.875-.974S62.419 33.803 53.95 27.687c-.031-.022-.061-.033-.092-.051-1.049-.728-2.396-1.167-3.867-1.167-1.507 0-2.882.463-3.941 1.224-.013.008-.026.012-.039.022-8.488 6.134-27.267 21.397-27.267 21.397a4.695 4.695 0 0 1-2.875.974 4.704 4.704 0 0 1-3.764-1.858 4.743 4.743 0 0 1 .885-6.64l34.133-26.104c.821-.628 1.843-.974 2.877-.974s2.056.346 2.877.974L87.01 41.588a4.742 4.742 0 0 1 .885 6.638z" style="fill:rgb(95, 108, 175);animation-play-state:paused" ></path>
<metadata xmlns:d="https://loading.io/stock/" style="animation-play-state:paused" ><d:name style="animation-play-state:paused" >home</d:name>
<d:tags style="animation-play-state:paused" >house,building,countryside,apartment,complex,cottage,home,map</d:tags>
<d:license style="animation-play-state:paused" >free</d:license>
<d:slug style="animation-play-state:paused" >lapyey</d:slug></metadata></g><!-- generated by https://loading.io/ --></svg>