<?xml version="1.0" encoding="utf-8"?><svg xml:space="preserve" viewBox="0 0 100 100" y="0" x="0" xmlns="http://www.w3.org/2000/svg" id="圖層_1" version="1.1" width="100px" height="100px" xmlns:xlink="http://www.w3.org/1999/xlink" style="width:100%;height:100%;background-size:initial;background-repeat-y:initial;background-repeat-x:initial;background-position-y:initial;background-position-x:initial;background-origin:initial;background-color:initial;background-clip:initial;background-attachment:initial;animation-play-state:paused" ><g class="ldl-scale" style="transform-origin:50% 50%;transform:rotate(0deg) scale(1, 1);animation-play-state:paused" ><path fill="#333" d="M79.875 47.332a29.81 29.81 0 0 0-1.794-7.897l7.96-6.804a40.146 40.146 0 0 0-11.102-13.893l-8.395 6.239a29.87 29.87 0 0 0-7.296-3.517l-.356-10.455C56.031 10.355 53.058 10 50 10s-6.031.355-8.892 1.004l-.356 10.456a29.872 29.872 0 0 0-7.296 3.517l-8.395-6.239a40.146 40.146 0 0 0-11.102 13.893l7.96 6.804a29.828 29.828 0 0 0-1.794 7.897L10 50.009a39.831 39.831 0 0 0 3.948 17.34l10.286-1.982a30.134 30.134 0 0 0 5.054 6.324l-4.217 9.579a39.835 39.835 0 0 0 16.021 7.721l4.86-9.271c1.325.179 2.674.28 4.048.28s2.723-.101 4.047-.279l4.86 9.271a39.835 39.835 0 0 0 16.021-7.721l-4.217-9.579a30.16 30.16 0 0 0 5.054-6.324l10.286 1.982a39.831 39.831 0 0 0 3.948-17.34l-10.124-2.678zM50 65c-8.284 0-15-6.716-15-15 0-8.284 6.716-15 15-15s15 6.716 15 15c0 8.284-6.716 15-15 15z" style="fill:rgb(95, 108, 175);animation-play-state:paused" ></path>
<metadata xmlns:d="https://loading.io/stock/" style="animation-play-state:paused" ><d:name style="animation-play-state:paused" >gear</d:name>
<d:tags style="animation-play-state:paused" >config,setting,machinery,industry,option,gear,gear</d:tags>
<d:license style="animation-play-state:paused" >by</d:license>
<d:slug style="animation-play-state:paused" >66rhfj</d:slug></metadata></g><!-- generated by https://loading.io/ --></svg>