<?xml version="1.0" encoding="utf-8"?><svg xml:space="preserve" viewBox="0 0 100 100" y="0" x="0" xmlns="http://www.w3.org/2000/svg" id="圖層_1" version="1.1" width="100px" height="100px" xmlns:xlink="http://www.w3.org/1999/xlink" style="width:100%;height:100%;background-size:initial;background-repeat-y:initial;background-repeat-x:initial;background-position-y:initial;background-position-x:initial;background-origin:initial;background-color:initial;background-clip:initial;background-attachment:initial;animation-play-state:paused" ><g class="ldl-scale" style="transform-origin:50% 50%;transform:rotate(0deg) scale(1, 1);animation-play-state:paused" ><path fill="#e0e0e0" d="M59.1 26.7l11.2-11.2c-12.5-7.4-28.1-7.4-40.6 0l11.2 11.2c5.8-2.3 12.4-2.3 18.2 0z" style="fill:rgb(255, 255, 255);animation-play-state:paused" ></path>
<path fill="#e0e0e0" d="M26.7 40.9L15.5 29.7c-7.4 12.5-7.4 28.1 0 40.6l11.2-11.2c-2.3-5.8-2.3-12.4 0-18.2z" style="fill:rgb(255, 255, 255);animation-play-state:paused" ></path>
<path fill="#e0e0e0" d="M73.3 59.1l11.2 11.2c7.4-12.5 7.4-28.1 0-40.6L73.3 40.9c2.3 5.8 2.3 12.4 0 18.2z" style="fill:rgb(255, 255, 255);animation-play-state:paused" ></path>
<path fill="#e0e0e0" d="M40.9 73.3L29.7 84.5c12.5 7.4 28.1 7.4 40.6 0L59.1 73.3c-5.8 2.3-12.4 2.3-18.2 0z" style="fill:rgb(255, 255, 255);animation-play-state:paused" ></path>
<path fill="#e15b64" d="M67.7 67.7c-2.5 2.5-5.4 4.4-8.5 5.6l11.2 11.2c2.8-1.7 5.5-3.7 8-6.2s4.5-5.1 6.2-8L73.3 59.1c-1.2 3.1-3.1 6.1-5.6 8.6z" style="fill:rgb(95, 108, 175);animation-play-state:paused" ></path>
<path fill="#e15b64" d="M32.3 32.3c2.5-2.5 5.4-4.4 8.5-5.6L29.7 15.5c-2.8 1.7-5.5 3.7-8 6.2s-4.5 5.1-6.2 8l11.2 11.2c1.2-3.1 3.1-6.1 5.6-8.6z" style="fill:rgb(95, 108, 175);animation-play-state:paused" ></path>
<path fill="#e15b64" d="M70.3 15.5L59.1 26.7c3.1 1.2 6 3.1 8.5 5.6 2.5 2.5 4.4 5.4 5.6 8.5l11.2-11.2c-1.7-2.8-3.7-5.5-6.2-8s-5-4.4-7.9-6.1z" style="fill:rgb(95, 108, 175);animation-play-state:paused" ></path>
<path fill="#e15b64" d="M32.3 67.7c-2.5-2.5-4.4-5.4-5.6-8.5L15.5 70.3c1.7 2.8 3.7 5.5 6.2 8s5.1 4.5 8 6.2l11.2-11.2c-3.1-1.2-6.1-3.1-8.6-5.6z" style="fill:rgb(95, 108, 175);animation-play-state:paused" ></path>
<metadata xmlns:d="https://loading.io/stock/" style="animation-play-state:paused" ><d:name style="animation-play-state:paused" >life buoy</d:name>
<d:tags style="animation-play-state:paused" >help,save,guard,support,life buoy,cc-by</d:tags>
<d:license style="animation-play-state:paused" >by</d:license>
<d:slug style="animation-play-state:paused" >3y846f</d:slug></metadata></g><!-- generated by https://loading.io/ --></svg>